# xmcd
#
# Track frame offsets: 
#        150
#        12375
#        26228
#        40401
#        53792
#        68266
#        80668
#        92808
#        104518
#        116198
#        130453
#        143882
#        158907
#        175195
#        191995
#        206744
#        221668
#        236338
#        254821
#        267389
#
# Disc length: 3777 seconds
#
# Revision: 0
# Processed by: cddbd v1.5.2PL0 Copyright (c) Steve Scherf et al.
# Submitted via: ExactAudioCopy v1.3
#
DISCID=360ebf14
DTITLE=Billy Eckstine - Essential Collection CD2
DYEAR=2016
DGENRE=blues
TTITLE0=Passing Strangers (With Sarah Vaughn)
TTITLE1=My Foolish Heart
TTITLE2=If
TTITLE3=I Wanna Be Loved
TTITLE4=No One But You
TTITLE5=I left My Hat In Haiti
TTITLE6=Taking A Chance On Love
TTITLE7=Kiss Of Fire
TTITLE8=Gigi
TTITLE9=Coquette
TTITLE10=Send My Baby Back To Me
TTITLE11=St. Louis Blues Pt.1
TTITLE12=One For My Baby (And One More For The Road)
TTITLE13=Tenderly
TTITLE14=I Let A Song Go Out Of My Heart
TTITLE15=You Don't Know What Love Is
TTITLE16=Easter Parade (With Sarah Vaughn)
TTITLE17=Imagination
TTITLE18=Lullaby Of The Leaves
TTITLE19=Little Mama
EXTD=
EXTT0=
EXTT1=
EXTT2=
EXTT3=
EXTT4=
EXTT5=
EXTT6=
EXTT7=
EXTT8=
EXTT9=
EXTT10=
EXTT11=
EXTT12=
EXTT13=
EXTT14=
EXTT15=
EXTT16=
EXTT17=
EXTT18=
EXTT19=
PLAYORDER=
